<?xml version="1.0" encoding="UTF-8" standalone="no"?>
<!-- Created with Inkscape (http://www.inkscape.org/) -->

<svg
   xmlns:dc="http://purl.org/dc/elements/1.1/"
   xmlns:cc="http://creativecommons.org/ns#"
   xmlns:rdf="http://www.w3.org/1999/02/22-rdf-syntax-ns#"
   xmlns:svg="http://www.w3.org/2000/svg"
   xmlns="http://www.w3.org/2000/svg"
   xmlns:sodipodi="http://sodipodi.sourceforge.net/DTD/sodipodi-0.dtd"
   xmlns:inkscape="http://www.inkscape.org/namespaces/inkscape"
   width="99.106178"
   height="128.93799"
   id="svg2"
   version="1.1"
   inkscape:version="0.48.4 r9939"
   sodipodi:docname="segno.svg">
  <defs
     id="defs4" />
  <sodipodi:namedview
     id="base"
     pagecolor="#ffffff"
     bordercolor="#666666"
     borderopacity="1.0"
     inkscape:pageopacity="0.0"
     inkscape:pageshadow="2"
     inkscape:zoom="1.979899"
     inkscape:cx="57.78304"
     inkscape:cy="56.728811"
     inkscape:document-units="px"
     inkscape:current-layer="layer1"
     showgrid="false"
     fit-margin-top="0"
     fit-margin-left="0"
     fit-margin-right="0"
     fit-margin-bottom="0"
     inkscape:window-width="1055"
     inkscape:window-height="707"
     inkscape:window-x="0"
     inkscape:window-y="25"
     inkscape:window-maximized="0" />
  <metadata
     id="metadata7">
    <rdf:RDF>
      <cc:Work
         rdf:about="">
        <dc:format>image/svg+xml</dc:format>
        <dc:type
           rdf:resource="http://purl.org/dc/dcmitype/StillImage" />
        <dc:title></dc:title>
      </cc:Work>
    </rdf:RDF>
  </metadata>
  <g
     inkscape:label="Layer 1"
     inkscape:groupmode="layer"
     id="layer1"
     transform="translate(-255.03689,-481.1628)">
    <path
       style="fill:#131313"
       d="m 306.52318,607.84983 c -7.33888,-3.72952 -11.69467,-10.79551 -10.66404,-17.29925 0.56248,-3.54948 5.78542,-7.28413 10.18693,-7.28413 5.25518,0 7.71622,2.38023 10.31677,9.97805 2.65687,7.76233 5.44248,9.47716 11.05065,6.80281 9.35942,-4.4632 8.55143,-18.46354 -1.57666,-27.31957 -4.62859,-4.04725 -23.30459,-14.46129 -25.93413,-14.46129 -0.80084,0 -7.91309,10.01077 -15.80773,22.25 -19.76632,30.64412 -18.20607,28.75 -23.68236,28.75 -3.86008,0 -4.49336,-0.27047 -4.0974,-1.75 0.25759,-0.9625 7.96007,-13.13334 17.11663,-27.04631 9.15656,-13.91298 16.64295,-25.83798 16.63642,-26.5 -0.007,-0.66203 -2.68126,-2.66984 -5.94387,-4.4618 -7.43523,-4.08374 -17.11745,-11.80454 -21.15683,-16.87089 -5.22861,-6.55793 -7.17101,-11.3531 -7.64414,-18.871 -1.52361,-24.20981 23.92706,-40.96828 42.85054,-28.21575 6.76439,4.55852 9.90082,13.12019 6.87653,18.77114 -1.2932,2.41637 -6.08607,4.94461 -9.37365,4.94461 -5.89468,0 -8.54663,-2.81071 -11.55515,-12.2469 -1.27203,-3.98969 -4.28544,-6.7531 -7.36407,-6.7531 -2.94179,0 -8.278,6.0253 -9.06463,10.23518 -1.8788,10.05498 5.02051,18.84863 21.33598,27.19419 5.98977,3.06385 11.71414,5.55956 12.72083,5.54603 1.27248,-0.0171 6.98211,-7.78905 18.73348,-25.5 l 16.90314,-25.4754 4.28784,0 c 2.35831,0 4.55362,0.43004 4.87846,0.95566 0.32485,0.52561 -7.34728,12.8648 -17.04917,27.42044 -9.70189,14.55563 -17.37423,26.89447 -17.04965,27.41965 0.32458,0.52519 3.86076,2.89142 7.85819,5.25831 9.61467,5.69288 19.07532,15.20552 22.50353,22.6272 9.39194,20.33247 -3.13176,42.39678 -24.98012,44.01008 -5.30073,0.39142 -7.02711,0.0697 -11.31232,-2.10796 z m -48.51997,-38.50646 c -3.76174,-3.76173 -3.96115,-8.75857 -0.50966,-12.77116 2.0659,-2.40175 3.15831,-2.80576 7.58658,-2.80576 4.42827,0 5.52068,0.40401 7.58658,2.80576 7.96667,9.26181 -6.0046,21.43006 -14.6635,12.77116 z m 81.43392,-32.0685 c -5.83527,-2.35482 -6.99961,-9.51965 -2.30925,-14.21001 2.74991,-2.74992 3.50403,-2.99632 7.717,-2.52146 9.95193,1.12173 12.75865,11.81543 4.25527,16.2127 -3.22285,1.6666 -6.39649,1.83698 -9.66302,0.51877 z"
       id="path3879"
       inkscape:connector-curvature="0" />
    <g
       id="g3863"
       transform="translate(157.5838,-7.0710678)" />
  </g>
</svg>
