<svg xmlns="http://www.w3.org/2000/svg" viewBox="0 0 1005 355">
    <g stroke="#000">
        <path d="M401.06.774l-47.874 161.403L163.06.774z" class="frac-a"/>
        <path id="frac-gmcla" d="M353.186 162.177L401.06 355.04 1.656 234.67z" class="frac-b"/>
        <path d="M163.06 282.847L13.965 353.672l387.094 1.367z" class="frac-c"/>
        <path d="M163.06 282.885L1.655 234.67l.342 119.002h11.968z" class="frac-a"/>
        <path d="M353.186 162.177l-208.11-60.46L1.657 234.67z" class="frac-b"/>
        <path d="M1.94 59.59l.14 175.686 143.42-133.68z" class="frac-c"/>
        <path d="M163.06.774H1.655L2.14 59.59z" class="frac-a"/>
        <path d="M401.06.774L626.408 96.18l-273.222 65.997z" class="frac-b"/>
        <path d="M721.814.774L626.408 96.18 401.06.773z" class="frac-c"/>
        <path d="M401.06 353.672l62.92-217.484-110.794 25.99z" class="frac-a"/>
        <path d="M721.814.774l110.793 166.874-206.2-71.47z" class="frac-a"/>
        <path d="M562.462 234.67L626.41 96.18l-162.77 39.666z" class="frac-b"/>
        <path d="M681.463 353.672L464.32 136.53l-63.26 218.51z" class="frac-c"/>
        <path d="M764.9 144.312l-202.438 90.36L626.41 96.178z" class="frac-a"/>
        <path d="M764.9 144.307v90.364H562.462z" class="frac-b"/>
        <path d="M883.9 353.672l-118.658-118.66-101.22 101.22 17.44 17.44z" class="frac-c"/>
        <path d="M562.462 234.67l202.438.685-100.877 100.877z" class="frac-a"/>
        <path d="M832.607 167.648L764.9 235.355V143.58z" class="frac-b"/>
        <path d="M721.814.774H999.48L832.608 167.648z" class="frac-c"/>
        <path d="M902.123 98.132l102.146 136.54V.773h-4.79z" class="frac-a"/>
        <path d="M765.584 234.67h238.685L902.04 98.216z" class="frac-b"/>
        <path d="M832.607 234.67h171.662L883.9 353.673l-51.293-51.294z" class="frac-c"/>
        <path d="M1004.27 353.672l-43.088-76.598 43.087-42.403z" class="frac-a"/>
        <path d="M883.9 353.672h120.37l-42.914-76.376z" class="frac-b"/>
        <path d="M2.38 59.677l160.556-59 189.57 161.28z" class="frac-c"/>
        <path d="M832.607 234.67v67.708l-67.365-67.365z" class="frac-a"/>
    </g>
</svg>
