<svg version="1.1" id="Ebene_1" xmlns="http://www.w3.org/2000/svg" x="0" y="0" viewBox="0 0 256 256" xml:space="preserve"><style></style><path d="M196 40H60c-2.2 0-4 1.8-4 4v124c0 4.4 3.6 8 8 8h9.4c3.5 0 6.5 2.7 6.9 6.2 3 23.6 23.2 41.8 47.6 41.8s44.6-18.2 47.6-41.8c.5-3.5 3.4-6.2 6.9-6.2h9.4c4.4 0 8-3.6 8-8V44c.2-2.2-1.6-4-3.8-4zm-4 128h-9.4c-7.5 0-13.9 5.7-14.9 13.2C165.1 201 148.1 216 128 216s-37.1-15-39.7-34.8c-1-7.5-7.4-13.2-14.9-13.2H64V48h128v120zM91.4 36h9.2c1.9 0 3.4-1.5 3.4-3.4V19.4c0-1.9-1.5-3.4-3.4-3.4h-9.2c-1.9 0-3.4 1.5-3.4 3.4v13.2c0 1.9 1.5 3.4 3.4 3.4zm.6-16h8v12h-8V20zM155.4 36h9.2c1.9 0 3.4-1.5 3.4-3.4V19.4c0-1.9-1.5-3.4-3.4-3.4h-9.2c-1.9 0-3.4 1.5-3.4 3.4v13.2c0 1.9 1.5 3.4 3.4 3.4zm.6-16h8v12h-8V20zM85 22H44c-2.2 0-4 1.8-4 4s1.8 4 4 4h41v-8zM107 22h41v8h-41zM212 22h-42v8h42c2.2 0 4-1.8 4-4s-1.8-4-4-4z"/><path d="M147 156.5c.3-2.4-1.6-4.5-4-4.5h-30c-2.4 0-4.3 2.1-4 4.5 1.1 8.8 5.1 27.5 19 27.5 6.4 0 10.6-3.9 13.5-9 1.4 0 6.9-.2 9.6-2.4l5-7.6c0-3.3-3.8-6-8-6h-1.5c.2-.9.3-1.7.4-2.5zm1.1 6.5c1.7 0 3 .7 3.6 1.4l-3.5 5.4c-.9.5-2.4.8-4 1.1l3.5-7.8h.4zM128 180c-4.5 0-8-2.7-10.7-8.2-2.6-5.2-3.8-11.4-4.3-15.8h30c-1 4.3-1.7 10.6-4.3 15.8-2.8 5.5-6.2 8.2-10.7 8.2zM119.1 130.9c-.4.4-1.1 1-1.8 1.8s-1.2 2.1-1.3 3.2v.9c0 .2 0 .4.1.6.1.4.1.9.2 1.3.2.8.4 1.5.7 2.1.5 1.2 1 2.2 1.5 2.8.2.3.4.6.5.7.1.2.2.3.2.3.2.3.6.5 1 .4.5-.1.9-.7.8-1.2v-.1s-.1-.4-.2-1c-.1-.7-.3-1.6-.5-2.7-.1-.6-.2-1.1-.2-1.7v-.8-.6-.3c.1-.4.2-.6.6-1 .3-.4.9-.9 1.6-1.6.7-.7 1.4-1.8 1.7-3 .3-1.4.1-2.2 0-3-.3-1.7-.7-3.1-1.2-4.3-.4-1.2-.9-2.1-1.2-2.8-.3-.7-.5-1-.5-1-.2-.3-.6-.5-1-.5-.6.1-.9.6-.8 1.2 0 0 .1.4.2 1.1.1.7.2 1.7.4 2.8.2 1.2.3 2.5.4 3.9 0 .6 0 1.5-.1 1.6-.4.1-.6.4-1.1.9zM128.9 119.7c-.2-.3-.6-.5-1-.5-.6.1-.9.6-.8 1.2 0 0 .1.4.2 1.1.1.7.2 1.7.4 2.8.2 1.2.3 2.5.4 3.9 0 .6 0 1.5-.1 1.6-.1.3-.3.6-.8 1.1-.4.4-1.1 1-1.8 1.8s-1.2 2.1-1.3 3.2v.9c0 .2 0 .4.1.6.1.4.1.9.2 1.3.2.8.4 1.5.7 2.1.5 1.2 1 2.2 1.5 2.8.2.3.4.6.5.7.1.2.2.3.2.3.2.3.6.5 1 .4.5-.1.9-.7.8-1.2v-.1s-.1-.4-.2-1c-.1-.7-.3-1.6-.5-2.7-.1-.6-.2-1.1-.2-1.7v-.8-.6-.3c.1-.4.2-.6.6-1 .3-.4.9-.9 1.6-1.6.7-.7 1.4-1.8 1.7-3 .3-1.4.1-2.2 0-3-.3-1.7-.7-3.1-1.2-4.3-.4-1.2-.9-2.1-1.2-2.8-.5-.9-.8-1.2-.8-1.2zM135.1 130.9c-.4.4-1.1 1-1.8 1.8s-1.2 2.1-1.3 3.2v.9c0 .2 0 .4.1.6.1.4.1.9.2 1.3.2.8.4 1.5.7 2.1.5 1.2 1 2.2 1.5 2.8.2.3.4.6.5.7.1.2.2.3.2.3.2.3.6.5 1 .4.5-.1.9-.7.8-1.2v-.1s-.1-.4-.2-1c-.1-.7-.3-1.6-.5-2.7-.1-.6-.2-1.1-.2-1.7v-.8-.6-.3c.1-.4.2-.6.6-1 .3-.4.9-.9 1.6-1.6.7-.7 1.4-1.8 1.7-3 .3-1.4.1-2.2 0-3-.3-1.7-.7-3.1-1.2-4.3-.4-1.2-.9-2.1-1.2-2.8-.3-.7-.5-1-.5-1-.2-.3-.6-.5-1-.5-.6.1-.9.6-.8 1.2 0 0 .1.4.2 1.1.1.7.2 1.7.4 2.8.2 1.2.3 2.5.4 3.9 0 .6 0 1.5-.1 1.6-.4.1-.6.4-1.1.9zM81.4 100c3.3 0 6.2-.7 8.7-2.1l-1.3-3c-2 .7-4.2 1.1-6.7 1.1-1.6 0-2.8-.6-3.7-1.9s-1.2-3.3-1.2-6.3c0-2.9.4-5 1.3-6.2.9-1.2 2-1.8 3.4-1.8s2.4.1 3.1.4c.1 1.3.4 2.8.7 2.8H89c.3 0 .6-1.3.7-2.2.2-.9.3-1.5.3-1.9v-.8c-2-1.4-4.9-2.1-7.6-2.1-3.3 0-5.9 1-7.7 3-1.8 2-2.7 5.1-2.7 9.2 0 4.2.7 7.2 2.2 9 1.5 1.9 3.9 2.8 7.2 2.8zM101 100c3.3 0 5.9-1 7.7-3.1 1.8-2.1 2.7-5.2 2.7-9.3s-.8-7.1-2.5-8.9-4.1-2.7-7.4-2.7-5.9 1-7.7 3c-1.8 2-2.7 5.1-2.7 9.2s.8 7.2 2.5 9c1.6 1.9 4.1 2.8 7.4 2.8zm-3.4-18.4c.8-1.2 2-1.8 3.6-1.8 3.3 0 5 2.7 5 8.2 0 2.9-.4 5-1.3 6.3-.9 1.3-2.1 1.9-3.6 1.9s-2.8-.7-3.6-2c-.9-1.3-1.3-3.5-1.3-6.4-.1-3 .3-5 1.2-6.2zM113 97l.3 3h9.6l.4-3c-.7-.6-2.3-1.2-3.3-1.5V90h4.7c.3 1 .7 1.1 1 1.4l2.3-.4v-6l-2.3-.3c-.3.3-.7.3-1 1.3H120v-6h5.3c.3 1 .7 2.1 1.2 2.5l2.5-.3V76h-15.7l-.3 3c.3.4 1 1 2 1.3v15.5c-1 .3-1.7.9-2 1.2zM131 97l.3 3h9.6l.4-3c-.7-.6-2.3-1.2-3.3-1.5V90h4.7c.3 1 .7 1.1 1 1.4l2.3-.4v-6l-2.3-.3c-.3.3-.7.3-1 1.3H138v-6h5.3c.3 1 .7 2.1 1.2 2.5l2.5-.3V76h-15.7l-.3 3c.3.4 1 1 2 1.3v15.5c-1 .3-1.7.9-2 1.2zM149 97l.3 3H165v-6.2l-2.3-.3c-.6.5-.7 1.5-1 2.5H156v-6h4.7c.3 0 .7 1 1 1.2l2.3-.5v-6.1l-2.3-.2c-.3.3-.7.5-1 1.5H156v-6h5.3c.3 1 .7 2.1 1.2 2.5l2.5-.3V76h-15.7l-.3 3c.3.4 1 1 2 1.3v15.5c-1 .3-1.7.9-2 1.2zM167.3 97l.6 3H184v-6.2l-2.6-.3c-.6.5-1 1.5-1.3 2.5H174v-6h5.3c.3 0 .4 1 .7 1.2l2-.5v-6.1l-2-.2c-.3.3-.4.5-.7 1.5H174v-6h5.9c.3 1 .9 2.1 1.4 2.5l2.7-.3V76h-16.1l-.6 3c.3.4.7 1 1.7 1.3v15.5c-1 .3-1.4.9-1.7 1.2z"/></svg>