<svg version="1.1" id="Ebene_1" xmlns="http://www.w3.org/2000/svg" x="0" y="0" viewBox="0 0 256 256" xml:space="preserve"><style></style><path d="M173.1 80H82.9c-1.7 0-3.3 1.1-3.8 2.7l-5.3 16c-.9 2.6 1.1 5.3 3.8 5.3h100.9c2.7 0 4.7-2.7 3.8-5.3l-5.3-16c-.6-1.6-2.2-2.7-3.9-2.7zM183.1 161.7l-21.3-3.6c-1.2-.2-2.3-.2-3.5 0l-30.2 5-30.5 5c-1.2.2-2.3.2-3.5 0l-17.6-3C70 164 64.1 169 64.1 175.6v3.4c0 1.5.2 2.9.4 4.4 1.5 12.9 7.2 22.5 17.3 29.2 11 7.3 27 11.2 46.3 11.2s35.2-3.9 46.3-11.2c10.1-6.7 15.8-16.3 17.3-29.2.3-1.4.4-2.9.4-4.4v-7c-.1-5-3.9-9.4-9-10.3z"/><path d="M65 60c10.4 0 16.5 9.5 18.8 13.8.6 1.2 1.8 2 3.2 2.1h78.2l23.2-37.3c1.7-2.6-.4-6.6-3.4-6.6L84.5 39.7c-2.3.2-4.6 1.6-4.2 4l.1.3h-3c-1.3 0-2.6.7-3.3 1.8-.1.1-.1.2-.2.3-.7 1.2-2 1.9-3.4 1.9H65c-3.3 0-2.7-8-11-8S41 55.3 41 67v46c0 16.1-13.9 31-5 31 7.7 0 12-15.6 17-29s-1.2-55 12-55z"/><path d="M174.7 108H81.3C63.1 126.9 48 152.5 48 176c0 48.2 39.7 64 80 64s80-15.8 80-64c0-23.5-15.1-49.1-33.3-68zm4 111.4c-12.3 8.2-29.9 12.6-50.7 12.6s-38.4-4.3-50.7-12.6C63.2 210 56 195.4 56 176c0-17.7 10.5-39.8 28-59.2l.8-.8h86.5c.2.3.5.5.7.8 17.5 19.4 28 41.5 28 59.2 0 19.4-7.2 34-21.3 43.4z"/></svg>