<svg version="1.1" id="Ebene_1" xmlns="http://www.w3.org/2000/svg" x="0" y="0" viewBox="0 0 256 256" xml:space="preserve"><style></style><path d="M183.2 83.3l-2.1-12.7c-.6-3.6-3.5-6.2-7-6.6l-4.6-18c-.9-3.5-4.1-6-7.8-6H94.2c-3.7 0-6.9 2.5-7.8 6.1L82 64c-3.6.4-6.5 3-7.1 6.6l-2.1 12.7c-.4 2.4 1.5 4.7 3.9 4.7h3.7l2.5 24h-.6c-2.4 0-4.2 2-4 4.4l7.6 80c.2 2.1 1.9 3.6 4 3.6h2.3l3.9 36.4c.2 2 1.9 3.6 4 3.6h56.8c2.1 0 3.8-1.6 4-3.6l3.6-36.4h1.5c2.1 0 3.8-1.6 4-3.6l7.6-80c.2-2.3-1.6-4.4-4-4.4h-.3l2.4-24h3.5c2.5 0 4.4-2.2 4-4.7zM94.2 48h67.5l4.1 16H90.2l4-16zM82.8 72h90.4l1.3 8H81.4l1.4-8zm70.5 160h-49.6l-3.4-32h56.2l-3.2 32zm9.1-40H93.6l-6.8-72h82.4l-6.8 72zm2.9-80H91l-2.5-24h79.3l-2.5 24z"/><path d="M120.1 165.2c4.3 2.7 7.4 6.5 7.9 8.1.4-1.6 3.8-5.4 7.9-8.2 4.4-3 11.2-5.5 11.1-12.5-.1-12.9-14.3-14.9-19-4.3-4.9-11.1-18.9-8.5-19 4.4-.1 7.1 6.7 9.7 11.1 12.5z"/></svg>